<?xml version="1.0" encoding="utf-8" standalone="yes"?>
<!DOCTYPE svg PUBLIC "-//W3C//DTD SVG 1.1//EN" "http://www.w3.org/Graphics/SVG/1.1/DTD/svg11.dtd">
<svg width="747" height="506" viewBox="0 0 747 506" style="fill:none;stroke:none;fill-rule:evenodd;clip-rule:evenodd;stroke-linecap:round;stroke-linejoin:round;stroke-miterlimit:1.5;" version="1.1" xmlns="http://www.w3.org/2000/svg" xmlns:xlink="http://www.w3.org/1999/xlink"><style class="text-font-style fontImports" data-font-family="Roboto">@import url('https://fonts.googleapis.com/css2?family=Roboto:wght@400;700&amp;display=block');</style><g id="items" style="isolation: isolate"><g id="blend" style="mix-blend-mode: normal"><g id="g-root-3.g-3_fr_1umswds18qlqma-fill" data-item-order="-334072" transform="translate(66.00003051757812, 285)"><g id="3.g-3_fr_1umswds18qlqma-fill" stroke="none" fill="#e2a3ff"><g><path d="M 25.2246 23.1875C 25.0807 23.1635 24.9344 23.1395 24.7859 23.1151C 21.8374 22.6315 17.9612 21.9956 12.725 18.1875C 10.1861 16.341 9.7448 13.0739 10.114 10L 218.225 10L 218.225 28.3552C 237.842 31.8915 252.725 49.0515 252.725 69.6875C 252.725 90.3235 237.842 107.4835 218.225 111.02L 218.225 167.188L 142.225 167.188C 141.891 164.354 141.125 157.587 140.725 153.188C 140.225 147.688 137.725 135.688 136.225 132.188C 134.725 128.688 132.225 125.188 126.225 121.688C 120.225 118.188 114.225 117.688 106.7246 117.688C 103.6054 117.688 100.8321 118.12 97.3616 118.661C 92.4876 119.421 86.2384 120.395 75.7246 120.688C 57.9994 121.18 50.4561 114.884 47.3652 112.305L 47.2246 112.188C 44.2246 109.6875 43.7246 99.1875 45.2246 91.6875C 46.4115 85.7528 46.0331 84.2011 45.5757 82.3256C 45.4551 81.8309 45.329 81.3136 45.2246 80.6875C 44.9059 78.7751 43.3681 76.8627 41.5179 74.5618C 40.4656 73.2532 39.3122 71.8189 38.2246 70.1875C 35.8246 66.5875 36.5579 62.3542 37.2246 60.6875C 38.4589 58.6303 38.6775 57.9274 38.9949 56.9071C 39.0632 56.6875 39.136 56.4532 39.2246 56.1875C 39.5336 55.2604 38.3148 54.7154 36.6304 53.9621C 35.5894 53.4965 34.3705 52.9514 33.2246 52.1875C 30.8246 50.5875 30.2246 46.8542 30.2246 45.1875L 30.2246 28.6875C 30.2246 25.6875 28.2246 23.6875 25.2246 23.1875ZM 210.5 105C 230.106 105 246 89.1061 246 69.5C 246 49.8939 230.106 34 210.5 34C 190.894 34 175 49.8939 175 69.5C 175 89.1061 190.894 105 210.5 105Z"></path></g></g></g><g id="g-root-2.g-2_fr_1lr5w4w18qlrf0-fill" data-item-order="-334068" transform="translate(66.11404418945312, 165)"><g id="2.g-2_fr_1lr5w4w18qlrf0-fill" stroke="none" fill="#c061ed"><g><path d="M 26.6107 50.1875C 25.0107 46.5875 24.9442 28.0208 25.1109 19.1875C 25.0829 16.7193 25.322 13.612 25.9221 10L 218.111 10L 218.111 28.3552C 237.728 31.8915 252.611 49.0515 252.611 69.6875C 252.611 90.3235 237.728 107.4835 218.111 111.02L 218.111 130L 10 130C 10.2706 127.747 10.9766 125.597 11.6111 124.188C 14.4444 117.854 21.1111 103.5875 25.1111 97.1875C 30.1111 89.1875 33.6111 78.1875 34.6111 71.6875C 35.3779 66.7033 31.4406 59.3672 28.6608 54.1878C 27.8154 52.6126 27.0771 51.2369 26.6107 50.1875ZM 210.386 105C 229.992 105 245.886 89.1061 245.886 69.5C 245.886 49.8939 229.992 34 210.386 34C 190.78 34 174.886 49.8939 174.886 69.5C 174.886 89.1061 190.78 105 210.386 105Z"></path></g></g></g><g id="g-root-1.g-1_fr_1lr5w4w18qlrf2-fill" data-item-order="-334064" transform="translate(82.03604125976562, 61)"><g id="1.g-1_fr_1lr5w4w18qlrf2-fill" stroke="none" fill="#974bbb"><g><path d="M 56.6888 39.6865C 95.0888 8.0865 157.022 7.8532 183.189 11.6865L 188.091 12.2028C 190.24 11.8636 192.444 11.6875 194.689 11.6875C 217.885 11.6875 236.689 30.4915 236.689 53.6875C 236.689 74.3235 221.806 91.4835 202.189 95.0198L 202.189 114L 10 114C 12.9661 96.1483 24.7509 65.9688 56.6888 39.6865ZM 194.464 89C 214.07 89 229.964 73.1061 229.964 53.5C 229.964 33.8939 214.07 18 194.464 18C 174.858 18 158.964 33.8939 158.964 53.5C 158.964 73.1061 174.858 89 194.464 89Z"></path></g></g></g><g id="g-root-1_1cw5cz418qlptv-fill" data-item-order="0" transform="translate(243.00003051757812, 81)"></g><g id="g-root-tx_informed_1hbce0g18qls7d-fill" data-item-order="0" transform="translate(327.0000305175781, 69)"><g id="tx_informed_1hbce0g18qls7d-fill" stroke="none" fill="#484848"><g><text style="font: bold 20px Roboto, sans-serif; white-space: pre;" font-weight="bold" font-size="20px" font-family="Roboto, sans-serif"><tspan x="12" y="34" dominant-baseline="ideographic">Contribute Smarter</tspan></text></g></g></g><g id="g-root-tx_makingda_1cw5cz418qlptu-fill" data-item-order="0" transform="translate(327.0000305175781, 105)"><g id="tx_makingda_1cw5cz418qlptu-fill" stroke="none" fill="#484848"><g><text style="font: 15px Roboto, sans-serif; white-space: pre;" font-size="15px" font-family="Roboto, sans-serif"><tspan x="12" y="28" dominant-baseline="ideographic">Make informed, data-driven decisions about which </tspan><tspan x="12" y="46" dominant-baseline="ideographic">candidates to support.</tspan></text></g></g></g><g id="g-root-tx_streamli_13zvvn418qn764-fill" data-item-order="0" transform="translate(327.0000305175781, 177)"><g id="tx_streamli_13zvvn418qn764-fill" stroke="none" fill="#484848"><g><text style="font: bold 20px Roboto, sans-serif; white-space: pre;" font-weight="bold" font-size="20px" font-family="Roboto, sans-serif"><tspan x="12" y="34" dominant-baseline="ideographic">Donate Faster</tspan></text></g></g></g><g id="g-root-3_zkouls18qn4sm-fill" data-item-order="0" transform="translate(243.00003051757812, 201)"></g><g id="g-root-tx_quickand_zkouls18qn4sl-fill" data-item-order="0" transform="translate(327.0000305175781, 213)"><g id="tx_quickand_zkouls18qn4sl-fill" stroke="none" fill="#484848"><g><text style="font: 15px Roboto, sans-serif; white-space: pre;" font-size="15px" font-family="Roboto, sans-serif"><tspan x="12" y="31" dominant-baseline="ideographic">Our streamlined platform gets your </tspan><tspan x="12" y="49" dominant-baseline="ideographic">contribution to local campaigns in just a few </tspan><tspan x="12" y="67" dominant-baseline="ideographic">clicks.</tspan></text></g></g></g><g id="g-root-coin_1hjgk4w18qn669-fill" data-item-order="0" transform="translate(243.00003051757812, 321)"></g><g id="g-root-tx_impacttr_1lza29c18qn5dz-fill" data-item-order="0" transform="translate(327.0000305175781, 309)"><g id="tx_impacttr_1lza29c18qn5dz-fill" stroke="none" fill="#484848"><g><text style="font: bold 20px Roboto, sans-serif; white-space: pre;" font-weight="bold" font-size="20px" font-family="Roboto, sans-serif"><tspan x="12" y="34" dominant-baseline="ideographic">Quantify Impact</tspan></text></g></g></g><g id="g-root-tx_monitori_1hjgk4w18qn668-fill" data-item-order="0" transform="translate(327.0000305175781, 345)"><g id="tx_monitori_1hjgk4w18qn668-fill" stroke="none" fill="#484848"><g><text style="font: 15px Roboto, sans-serif; white-space: pre;" font-size="15px" font-family="Roboto, sans-serif"><tspan x="12" y="28" dominant-baseline="ideographic">Track how your donations are being put to </tspan><tspan x="12" y="46" dominant-baseline="ideographic">work in your community.</tspan></text></g></g></g><g id="g-root-3.g-3_fr_1umswds18qlqma-stroke" data-item-order="-334072" transform="translate(66.00003051757812, 285)"><g id="3.g-3_fr_1umswds18qlqma-stroke" fill="none" stroke-linecap="round" stroke-linejoin="round" stroke-miterlimit="4" stroke="#ffffff" stroke-width="2"><g><path d="M 25.2246 23.1875C 25.0807 23.1635 24.9344 23.1395 24.7859 23.1151C 21.8374 22.6315 17.9611 21.9956 12.725 18.1875C 10.1861 16.341 9.7448 13.0739 10.114 10L 218.2246 10L 218.2246 28.3552C 237.842 31.8915 252.7246 49.0515 252.7246 69.6875C 252.7246 90.3235 237.842 107.4835 218.2246 111.0198L 218.2246 167.1875L 142.2246 167.1875C 141.8913 164.3542 141.1246 157.5875 140.7246 153.1875C 140.2246 147.6875 137.7246 135.6875 136.2246 132.1875C 134.7246 128.6875 132.2246 125.1875 126.2246 121.6875C 120.2246 118.1875 114.2246 117.6875 106.7246 117.6875C 103.6054 117.6875 100.8321 118.1199 97.3616 118.6611C 92.4876 119.421 86.2384 120.3954 75.7246 120.6875C 57.9994 121.1799 50.4561 114.8844 47.3652 112.3048L 47.2246 112.1875C 44.2246 109.6875 43.7246 99.1875 45.2246 91.6875C 46.4115 85.7528 46.0331 84.2011 45.5757 82.3256C 45.4551 81.8309 45.329 81.3136 45.2246 80.6875C 44.9059 78.7751 43.3681 76.8627 41.5179 74.5618C 40.4656 73.2532 39.3122 71.8189 38.2246 70.1875C 35.8246 66.5875 36.5579 62.3542 37.2246 60.6875C 38.4589 58.6303 38.6775 57.9274 38.9949 56.9071C 39.0632 56.6875 39.136 56.4532 39.2246 56.1875C 39.5336 55.2604 38.3148 54.7154 36.6304 53.9621C 35.5894 53.4965 34.3705 52.9514 33.2246 52.1875C 30.8246 50.5875 30.2246 46.8542 30.2246 45.1875L 30.2246 28.6875C 30.2246 25.6875 28.2246 23.6875 25.2246 23.1875ZM 210.5 105C 230.1061 105 246 89.1061 246 69.5C 246 49.8939 230.1061 34 210.5 34C 190.8939 34 175 49.8939 175 69.5C 175 89.1061 190.8939 105 210.5 105Z"></path></g></g></g><g id="g-root-2.g-2_fr_1lr5w4w18qlrf0-stroke" data-item-order="-334068" transform="translate(66.11404418945312, 165)"><g id="2.g-2_fr_1lr5w4w18qlrf0-stroke" fill="none" stroke-linecap="round" stroke-linejoin="round" stroke-miterlimit="4" stroke="#ffffff" stroke-width="2"><g><path d="M 26.6107 50.1875C 25.0107 46.5875 24.9442 28.0208 25.1109 19.1875C 25.0829 16.7193 25.322 13.612 25.9221 10L 218.1106 10L 218.1106 28.3552C 237.7281 31.8915 252.6106 49.0515 252.6106 69.6875C 252.6106 90.3235 237.7281 107.4835 218.1106 111.0198L 218.1106 130L 10 130C 10.2706 127.7468 10.9766 125.5974 11.6111 124.1875C 14.4444 117.8542 21.1111 103.5875 25.1111 97.1875C 30.1111 89.1875 33.6111 78.1875 34.6111 71.6875C 35.3779 66.7033 31.4406 59.3672 28.6608 54.1878C 27.8154 52.6126 27.0771 51.2369 26.6107 50.1875ZM 210.3857 105C 229.9919 105 245.8857 89.1061 245.8857 69.5C 245.8857 49.8939 229.9919 34 210.3857 34C 190.7796 34 174.8857 49.8939 174.8857 69.5C 174.8857 89.1061 190.7796 105 210.3857 105Z"></path></g></g></g><g id="g-root-1.g-1_fr_1lr5w4w18qlrf2-stroke" data-item-order="-334064" transform="translate(82.03604125976562, 61)"><g id="1.g-1_fr_1lr5w4w18qlrf2-stroke" fill="none" stroke-linecap="round" stroke-linejoin="round" stroke-miterlimit="4" stroke="#ffffff" stroke-width="2"><g><path d="M 56.6888 39.6865C 95.0888 8.0865 157.0222 7.8532 183.1888 11.6865L 188.0906 12.2028C 190.2401 11.8636 192.4437 11.6875 194.6886 11.6875C 217.8845 11.6875 236.6886 30.4915 236.6886 53.6875C 236.6886 74.3235 221.806 91.4835 202.1886 95.0198L 202.1886 114L 10 114C 12.966 96.1483 24.7509 65.9688 56.6888 39.6865ZM 194.4639 89C 214.07 89 229.9639 73.1061 229.9639 53.5C 229.9639 33.8939 214.07 18 194.4639 18C 174.8578 18 158.9639 33.8939 158.9639 53.5C 158.9639 73.1061 174.8578 89 194.4639 89Z"></path></g></g></g><g id="g-root-1_1cw5cz418qlptv-stroke" data-item-order="0" transform="translate(243.00003051757812, 81)"><g id="1_1cw5cz418qlptv-stroke" fill="none" stroke-linecap="round" stroke-linejoin="round" stroke-miterlimit="4" stroke="#484848" stroke-width="2"><g><path d="M 45 57L 45 51.666C 44.998898 47.984928 42.015076 45.001106 38.334 45.000004L 35 45L 35 36C 35 34.343147 33.656853 33 32 33C 30.343147 33 29 34.343147 29 36L 29 50L 26.422001 47.84C 25.538345 46.778507 23.961491 46.634342 22.9 47.517998C 21.838509 48.401653 21.694344 49.978508 22.577999 51.040001L 27.535999 57M 46.5 24.498001C 46.5 26.430998 48.067005 27.998001 50 27.998001C 51.932999 27.998001 53.5 26.430998 53.5 24.498001C 53.5 22.565004 51.932999 20.998001 50 20.998001C 48.067005 20.998001 46.5 22.565004 46.5 24.498001ZM 57 35C 56.184055 31.800182 53.302212 29.560986 50 29.560986C 46.697788 29.560986 43.815948 31.800182 43 35ZM 14.5 24.498001C 14.5 26.430998 16.067003 27.998001 18 27.998001C 19.932997 27.998001 21.5 26.430998 21.5 24.498001C 21.5 22.565004 19.932997 20.998001 18 20.998001C 16.067003 20.998001 14.5 22.565004 14.5 24.498001ZM 25 35C 24.184053 31.800182 21.302212 29.560986 18 29.560986C 14.697788 29.560986 11.815947 31.800182 11 35ZM 30.5 18.498001C 30.500002 20.430996 32.067005 21.998001 34 21.998001C 35.932999 21.998001 37.5 20.430996 37.5 18.498001C 37.5 16.565004 35.932999 14.998 34 14.998C 32.067005 14.998 30.500002 16.565004 30.500002 18.498001ZM 41 29C 40.184052 25.800182 37.302212 23.560986 34 23.560986C 30.697788 23.560986 27.815947 25.800182 27 29ZM 23 16.998001L 27 16.998001M 25.456001 10.998L 28.766001 13.242001M 42.543999 10.998L 39.234001 13.242001M 41 16.998001L 45 16.998001"></path></g></g></g><g id="g-root-tx_informed_1hbce0g18qls7d-stroke" data-item-order="0" transform="translate(327.0000305175781, 69)"></g><g id="g-root-tx_makingda_1cw5cz418qlptu-stroke" data-item-order="0" transform="translate(327.0000305175781, 105)"></g><g id="g-root-tx_streamli_13zvvn418qn764-stroke" data-item-order="0" transform="translate(327.0000305175781, 177)"></g><g id="g-root-3_zkouls18qn4sm-stroke" data-item-order="0" transform="translate(243.00003051757812, 201)"><g id="3_zkouls18qn4sm-stroke" fill="none" stroke-linecap="round" stroke-linejoin="round" stroke-miterlimit="4" stroke="#484848" stroke-width="2"><g><path d="M 12 39L 18 39C 18 39 19 39 19 40L 19 54C 19 54 19 55 18 55L 12 55C 12 55 11 55 11 54L 11 40C 11 40 11 39 12 39M 19 52.125999C 28 55.125999 31.85 57 35.200001 57C 40 57 43.27 53.986 57 47.125999C 55.618729 45.265095 53.221558 44.466038 51 45.125999L 42.368 47.860001M 19 41L 25 41C 29.705999 41 33 45 34 45L 41 45C 43 45 43 49 41 49L 30 49M 44.838001 36.711998L 40.438 32.112C 39.646904 31.321104 39.450363 30.112854 39.949997 29.112L 39.950001 29.112C 40.323048 28.361439 41.035046 27.836746 41.862411 27.702686C 42.689777 27.568626 43.531029 27.841642 44.121998 28.435999L 44.841999 29.156L 45.560001 28.436001C 46.150959 27.840788 46.99276 27.567219 47.820724 27.701313C 48.648693 27.835405 49.361118 28.360689 49.734001 29.112L 49.734001 29.112C 50.233639 30.112854 50.037094 31.321104 49.245998 32.112ZM 33 24L 56.674 24L 56.674 24L 56.674 37.478001C 56.674 38.845001 55.566998 39.953793 54.199997 39.956001L 35.478001 39.956001C 34.109436 39.956001 33 38.846561 33 37.477997L 33 24L 33 24ZM 35 18.9L 54.674 18.9C 55.778568 18.9 56.674 19.795429 56.674 20.9L 56.674 24L 56.674 24L 33 24L 33 24L 33 20.9C 33 19.795429 33.895432 18.9 35 18.9ZM 44.838001 18.813999C 44.838001 18.813999 46.981998 9.168 51.268002 11.309999C 54.723999 13.038 50.200001 18.813999 44.838001 18.813999ZM 44.838001 18.813999C 44.838001 18.813999 42.694 9.168 38.400002 11.309999C 34.950001 13.038 39.478001 18.813999 44.838001 18.813999Z"></path></g></g></g><g id="g-root-tx_quickand_zkouls18qn4sl-stroke" data-item-order="0" transform="translate(327.0000305175781, 213)"></g><g id="g-root-coin_1hjgk4w18qn669-stroke" data-item-order="0" transform="translate(243.00003051757812, 321)"><g id="coin_1hjgk4w18qn669-stroke" fill="none" stroke-linecap="round" stroke-linejoin="round" stroke-miterlimit="4" stroke="#484848" stroke-width="2"><g><path d="M 56.473999 37.697998C 55.916 48.438 46.068001 57 34 57L 34 57C 21.574001 57 11.5 47.922001 11.5 36.732002L 11.5 36.732002M 49.736 31.799999C 53.91 33.200001 56.5 35.167999 56.5 37.335999C 56.5 41.613998 46.425999 45.082001 34 45.082001C 21.574001 45.082001 11.5 41.599998 11.5 37.327999C 11.5 35.056 14.342 33.012001 18.869999 31.594M 36.784 18.23L 33 18.23C 31.802832 18.231649 30.774866 19.081772 30.548531 20.257351C 30.322195 21.43293 30.961025 22.603962 32.071999 23.049999L 35.917999 24.588001C 37.032097 25.032509 37.67347 26.205648 37.446316 27.383444C 37.219158 28.561237 36.1875 29.411705 34.987999 29.41L 31.200001 29.41M 33.987999 18.23L 33.987999 15.521999M 33.987999 32.118L 33.987999 29.41M 21.178001 23.82C 21.176056 30.896141 26.911858 36.633518 33.987999 36.633518C 41.06414 36.633518 46.799942 30.896141 46.798 23.82C 46.799942 16.743858 41.06414 11.006482 33.987999 11.006482C 26.911858 11.006482 21.176056 16.743858 21.177999 23.82"></path></g></g></g><g id="g-root-tx_impacttr_1lza29c18qn5dz-stroke" data-item-order="0" transform="translate(327.0000305175781, 309)"></g><g id="g-root-tx_monitori_1hjgk4w18qn668-stroke" data-item-order="0" transform="translate(327.0000305175781, 345)"></g></g></g></svg>